<?xml version="1.0" encoding="UTF-8" standalone="no"?>
<!-- Created with Inkscape (http://www.inkscape.org/) -->

<svg
   width="254mm"
   height="254mm"
   viewBox="0 0 254 254"
   version="1.1"
   id="svg1"
   xml:space="preserve"
   inkscape:version="1.4.4 (dcaf3e7d9e, 2026-05-05)"
   sodipodi:docname="bitboard.svg"
   xmlns:inkscape="http://www.inkscape.org/namespaces/inkscape"
   xmlns:sodipodi="http://sodipodi.sourceforge.net/DTD/sodipodi-0.dtd"
   xmlns="http://www.w3.org/2000/svg"
   xmlns:svg="http://www.w3.org/2000/svg"><sodipodi:namedview
     id="namedview1"
     pagecolor="#ffffff"
     bordercolor="#000000"
     borderopacity="0.25"
     inkscape:showpageshadow="2"
     inkscape:pageopacity="0.0"
     inkscape:pagecheckerboard="0"
     inkscape:deskcolor="#d1d1d1"
     inkscape:document-units="mm"
     inkscape:zoom="0.74386223"
     inkscape:cx="397.25098"
     inkscape:cy="561.25984"
     inkscape:window-width="1920"
     inkscape:window-height="1048"
     inkscape:window-x="0"
     inkscape:window-y="0"
     inkscape:window-maximized="1"
     inkscape:current-layer="layer1" /><defs
     id="defs1" /><g
     inkscape:label="Ebene 1"
     inkscape:groupmode="layer"
     id="layer1"><path
       style="fill:#000000"
       d="M 4.5e-6,127 V 0 H 127 254 V 127 254 H 127 4.5e-6 Z"
       id="path13" /><g
       id="g13"
       transform="translate(-0.03697685,4.5002625)"><path
         style="fill:#ffffff"
         d="m 200.15099,210.88285 c 4.48797,-1.37304 8.13898,-4.94079 9.74844,-9.52612 0.68458,-1.95034 0.70891,-2.88517 0.70891,-27.23795 v -25.21829 l 0.86733,-3.45372 c 3.63086,-14.45815 3.81578,-27.99645 0.58342,-42.71319 -0.39576,-1.80188 -0.84439,-3.46875 -0.99696,-3.70417 -0.15257,-0.23541 -0.35678,-12.57602 -0.45379,-27.423568 l -0.17639,-26.995556 -1.18211,-2.400576 c -2.19396,-4.455388 -6.21745,-7.642562 -10.9179,-8.648514 -2.62911,-0.562663 -139.978291,-0.570978 -142.663882,-0.0086 -4.67732,0.979395 -8.90822,4.349179 -10.975229,8.741433 -0.940381,1.99824 -1.09402,2.798037 -1.355421,7.055555 -0.16215,2.641013 -0.2824,14.644338 -0.26723,26.674068 l 0.0276,21.872218 -0.901881,3.70417 c -1.920729,7.88877 -2.43634,12.27273 -2.468729,20.99028 -0.0232,6.24435 0.119869,9.08929 0.620899,12.34722 0.674231,4.38409 2.17331,11.61885 2.525591,12.18886 0.11063,0.17899 0.190199,11.40035 0.17684,24.93635 -0.0163,16.50986 0.10364,25.30763 0.36439,26.72757 0.534419,2.91021 2.10055,6.0269 4.037139,8.03413 2.03787,2.11221 3.760101,3.20595 6.503241,4.13005 2.11354,0.712 2.755809,0.72471 35.52525,0.70317 18.355042,-0.0121 33.446242,0.0515 33.536002,0.14127 0.0898,0.0898 16.93746,0.0869 37.43933,-0.006 36.60317,-0.16652 37.31979,-0.18295 39.69516,-0.90967 z"
         id="path12" /><path
         style="fill:#000000"
         d="m 192.0875,55.777679 c -4.54208,-2.096308 -5.44567,-8.266458 -1.72018,-11.746208 1.34249,-1.253936 2.61376,-1.699366 4.82995,-1.692335 5.61343,0.01781 8.79291,6.542904 5.38852,11.058598 -2.08782,2.769354 -5.55233,3.739591 -8.49829,2.379945 z"
         id="path11" /><path
         style="fill:#000000"
         d="m 56.807769,56.051948 c -5.38019,-2.147219 -6.23434,-9.516016 -1.46893,-12.672498 3.35141,-2.219879 8.16635,-0.974951 9.87422,2.553031 1.40307,2.898374 0.79972,6.573497 -1.41895,8.643042 -1.76842,1.649551 -4.89628,2.310562 -6.98634,1.476425 z"
         id="path10" /><path
         style="fill:#000000"
         d="m 192.62721,202.45473 c -5.24118,-2.09175 -6.15399,-8.88276 -1.67311,-12.44756 1.88568,-1.50018 5.01168,-1.70442 7.30701,-0.47741 4.19803,2.24413 4.97913,7.99481 1.5308,11.27028 -1.91351,1.81759 -4.98126,2.52609 -7.1647,1.65469 z"
         id="path9" /><path
         style="fill:#000000"
         d="m 56.807769,202.45473 c -0.47927,-0.19128 -1.39355,-0.74604 -2.03173,-1.2328 -3.18115,-2.42638 -3.4655,-7.67668 -0.56535,-10.43863 3.51079,-3.34348 9.04009,-2.40067 11.27576,1.92264 1.20514,2.33049 0.38621,6.33352 -1.69234,8.27236 -1.76842,1.64955 -4.89628,2.31056 -6.98634,1.47643 z"
         id="path8" /><path
         style="fill:#000000"
         d="m 122.06111,205.4623 c -0.67909,-0.0803 -2.74284,-0.31033 -4.5861,-0.51113 -23.514041,-2.56157 -45.932781,-16.93075 -59.148451,-37.91089 -8.19656,-13.0122 -12.81674,-28.86165 -12.81793,-43.97165 -10e-4,-14.24616 4.3884,-30.2037 11.70506,-42.55224 21.35519,-36.04179 65.098301,-50.269905 102.658981,-33.391405 12.50087,5.617469 24.94691,15.944047 32.85963,27.263897 8.05247,11.519758 12.65487,23.135888 14.90458,37.618058 0.83527,5.37697 0.83784,16.91878 0.005,22.225 -3.00649,19.15382 -10.62123,34.26883 -24.0016,47.64242 -12.6972,12.69076 -29.24657,20.92069 -46.40967,23.07932 -3.26549,0.41071 -13.18522,0.74331 -15.16945,0.50862 z"
         id="path7" /><path
         style="fill:#ffffff"
         d="m 121.47479,95.11084 c 3.49744,-0.71642 7.27534,-0.72112 10.70201,-0.0133 1.47268,0.30419 2.79686,0.42325 2.94262,0.26458 0.49391,-0.53768 1.08357,-4.85479 1.2922,-9.46071 0.54797,-12.097698 -2.54599,-25.053138 -8.57243,-35.89568 -1.75424,-3.156165 -2.15574,-3.300288 -7.75803,-2.784871 -9.00346,0.828328 -17.52409,3.298399 -26.053571,7.552748 -4.17915,2.084483 -12.06184,7.135045 -12.54495,8.037735 -0.61192,1.14338 0.0721,1.82465 3.38768,3.37402 13.36373,6.24491 25.651311,17.402888 31.172911,28.307178 0.86853,1.71522 0.35956,1.65728 5.43156,0.61832 z"
         id="path6" /><path
         style="fill:#ffffff"
         d="m 159.65939,120.62852 c 10.72795,-2.07028 21.19392,-7.27828 29.52146,-14.69025 3.63449,-3.2349 7.25333,-7.31562 7.55559,-8.51995 0.48411,-1.92885 -5.33538,-13.77238 -9.73256,-19.807208 -4.86254,-6.6735 -14.37649,-15.74232 -19.03732,-18.146635 -1.78494,-0.920769 -2.18492,-0.309467 -2.56337,3.917615 -0.99679,11.13363 -4.63157,22.521208 -10.17187,31.867908 -1.42078,2.39692 -5.07202,7.48488 -5.81209,8.09908 -0.82562,0.68521 -0.68068,1.26778 0.89136,3.58273 2.82495,4.15991 3.85238,6.89097 5.12765,13.63 0.0826,0.43656 0.2185,0.79375 0.30196,0.79375 0.0835,0 1.84711,-0.32717 3.91919,-0.72704 z"
         id="path5" /><path
         style="fill:#ffffff"
         d="m 60.879299,141.85835 c 10.44285,-9.97038 21.39745,-15.70186 35.14602,-18.38849 l 2.01003,-0.39278 0.21402,-1.65451 c 0.70509,-5.45067 2.304811,-10.06319 4.743221,-13.67622 0.59227,-0.87759 1.07686,-1.71342 1.07686,-1.8574 0,-0.30114 -3.37892,-2.2956 -6.643071,-3.92119 -5.64637,-2.81196 -12.76121,-5.08981 -18.93332,-6.06158 -5.93572,-0.93455 -19.12564,-0.35013 -21.19268,0.93902 -1.23013,0.76718 -3.55538,8.82362 -4.59226,15.91106 -0.80102,5.47526 -0.8057,15.4651 -0.01,20.59844 0.7022,4.52821 2.21569,10.89189 2.74096,11.52481 0.81277,0.97933 1.85757,0.39907 5.43988,-3.02116 z"
         id="path4" /><path
         style="fill:#ffffff"
         d="m 133.80011,144.85866 c 11.55254,-3.59806 18.2603,-17.04883 14.18373,-28.44199 -2.21356,-6.18643 -5.91709,-10.30002 -11.988,-13.31535 -2.90356,-1.44215 -5.45816,-2.00872 -8.99584,-1.99514 -3.6798,0.0141 -6.12889,0.5652 -9.34861,2.10356 -8.02906,3.83623 -13.03373,11.69918 -13.00908,20.43887 0.0146,5.16945 1.46767,9.51974 4.43355,13.27322 3.84223,4.86256 8.07543,7.50101 14.06782,8.76813 2.48671,0.52582 7.57299,0.12905 10.65643,-0.8313 z"
         id="path3" /><path
         style="fill:#ffffff"
         d="m 174.6497,181.09231 c 10.0951,-8.35743 19.16793,-21.67894 23.41602,-34.38143 2.05205,-6.13596 1.82414,-6.54809 -3.06637,-5.54501 -5.61238,1.15116 -11.09235,1.70913 -16.7857,1.70913 -8.8064,0 -14.87198,-1.03264 -22.42117,-3.81711 l -3.74264,-1.38045 -1.01402,1.62864 c -2.33695,3.75346 -6.49915,7.72248 -10.06095,9.59402 -1.18625,0.6233 -2.35314,1.28658 -2.59309,1.47394 -0.59587,0.46528 2.31307,6.04958 5.46576,10.49263 3.04949,4.29761 9.9008,11.14865 14.19691,14.19633 3.93005,2.78801 12.6343,7.32311 14.05529,7.32311 0.61749,0 1.57238,-0.48449 2.54996,-1.2938 z"
         id="path2" /><path
         style="fill:#ffffff"
         d="m 127.82692,198.1997 c 0.29112,-0.46416 -0.16743,-1.71021 -2.14206,-5.82084 -5.80139,-12.07688 -8.23036,-22.94613 -7.74038,-34.63696 0.11907,-2.84103 0.26059,-5.45153 0.31448,-5.80111 0.0757,-0.4911 -0.47143,-0.85894 -2.40674,-1.61801 -3.47701,-1.36375 -7.4977,-4.24781 -10.55707,-7.57261 l -2.58844,-2.81302 -4.207021,4.20295 c -8.95813,8.94948 -15.3895,20.84603 -17.75453,32.8418 -0.94018,4.76877 -0.94733,4.75132 3.16087,7.72256 10.3846,7.51062 23.939261,12.62288 36.743981,13.8583 4.74013,0.45734 6.72534,0.35691 7.17691,-0.36306 z"
         id="path1" /></g></g></svg>
